<?xml version="1.0" standalone="no"?>
<!DOCTYPE svg PUBLIC "-//W3C//DTD SVG 20010904//EN"
 "http://www.w3.org/TR/2001/REC-SVG-20010904/DTD/svg10.dtd">
<svg version="1.0" xmlns="http://www.w3.org/2000/svg"
 width="16.000000pt" height="16.000000pt" viewBox="0 0 16.000000 16.000000"
 preserveAspectRatio="xMidYMid meet">
<metadata>
Created by potrace 1.11, written by Peter Selinger 2001-2013
</metadata>
<g transform="translate(0.000000,16.000000) scale(0.003077,-0.003077)"
fill="#000000" stroke="none">
<path d="M300 5184 c-143 -38 -247 -145 -285 -290 -14 -54 -15 -307 -13 -2320
l3 -2259 23 -55 c33 -81 85 -146 152 -189 110 -71 -84 -66 2430 -66 l2275 0
55 23 c117 48 208 146 241 259 21 72 21 4554 0 4626 -33 113 -124 211 -241
259 l-55 23 -2265 2 c-1970 2 -2272 0 -2320 -13z m3249 -857 l22 -24 -3 -1284
c-3 -1277 -3 -1285 -25 -1379 -38 -167 -102 -318 -178 -420 -74 -100 -204
-208 -320 -267 -62 -32 -210 -79 -310 -99 -129 -25 -456 -26 -575 -1 -332 70
-556 229 -698 497 -74 139 -122 332 -122 493 0 69 3 84 22 104 l21 23 301 0
300 0 28 -27 c25 -24 28 -33 28 -94 0 -188 66 -316 196 -380 54 -27 79 -33
159 -37 258 -13 409 85 460 300 13 54 15 245 15 1312 l0 1250 27 28 27 28 301
0 302 0 22 -23z"/>
</g>
</svg>
