<?xml version="1.0" standalone="no"?>
<!DOCTYPE svg PUBLIC "-//W3C//DTD SVG 20010904//EN"
 "http://www.w3.org/TR/2001/REC-SVG-20010904/DTD/svg10.dtd">
<svg version="1.0" xmlns="http://www.w3.org/2000/svg"
 width="16.000000pt" height="16.000000pt" viewBox="0 0 16.000000 16.000000"
 preserveAspectRatio="xMidYMid meet">
<metadata>
Created by potrace 1.11, written by Peter Selinger 2001-2013
</metadata>
<g transform="translate(0.000000,16.000000) scale(0.001865,-0.001865)"
fill="#000000" stroke="none">
<path d="M4090 8395 c-104 -17 -232 -56 -325 -101 -183 -86 -128 -34 -1787
-1692 -1658 -1659 -1606 -1604 -1692 -1787 -156 -328 -152 -725 10 -1048 87
-172 71 -155 1648 -1735 831 -832 1544 -1540 1584 -1572 207 -169 466 -261
737 -262 256 -1 465 60 680 200 54 35 423 397 1609 1581 920 919 1561 1566
1595 1612 322 428 310 1044 -29 1461 -32 40 -740 753 -1572 1584 -1155 1153
-1531 1522 -1588 1561 -138 93 -280 154 -442 189 -101 22 -322 27 -428 9z
m418 -374 c85 -25 173 -67 252 -122 30 -20 744 -727 1585 -1571 1408 -1409
1534 -1539 1572 -1608 162 -293 145 -636 -45 -905 -49 -70 -3012 -3035 -3092
-3094 -273 -203 -619 -225 -920 -58 -69 38 -199 164 -1608 1572 -844 841
-1551 1555 -1571 1585 -55 80 -98 168 -123 257 -20 66 -23 101 -23 233 1 149
2 159 33 250 35 99 75 177 125 245 44 59 2991 3008 3062 3064 105 83 217 136
350 167 89 20 309 12 403 -15z"/>
<path d="M4115 6716 c-16 -8 -551 -535 -1187 -1173 -1038 -1039 -1157 -1162
-1164 -1196 -10 -56 1 -102 37 -160 41 -65 2245 -2277 2344 -2351 92 -70 105
-76 162 -76 37 0 60 7 94 29 24 16 552 539 1173 1162 1292 1298 1210 1215
1230 1254 38 72 5 177 -68 220 l-43 25 -886 0 -886 0 -3 258 c-3 276 -6 289
-60 338 -37 34 -68 46 -118 46 -50 0 -81 -12 -118 -46 -54 -49 -57 -62 -60
-338 l-3 -258 -269 0 -269 0 -3 258 c-2 216 -6 262 -20 287 -18 34 -52 67 -87
85 -33 17 -112 15 -148 -3 -38 -20 -80 -70 -91 -105 -9 -35 -9 -1329 0 -1364
11 -35 53 -85 91 -105 63 -32 155 -15 203 39 47 51 49 61 52 316 l4 242 268 0
268 0 4 -242 c3 -255 5 -265 52 -316 32 -36 75 -54 126 -54 51 0 94 18 126 54
47 51 49 61 52 316 l4 242 651 0 652 0 -960 -960 c-528 -528 -964 -960 -970
-960 -6 0 -485 475 -1065 1055 l-1055 1055 1077 1077 c592 593 1083 1092 1092
1110 24 48 21 119 -9 169 -42 72 -144 104 -220 70z"/>
</g>
</svg>
